<svg id="iconFormatColumnsAuto" width="18" height="18" viewBox="0 0 18 18" fill="none" xmlns="http://www.w3.org/2000/svg">
    <path fill-rule="evenodd" clip-rule="evenodd" d="M13 3.5V2.5H14V3.5H13ZM13 2H13.5V1.5H14V1H13V2ZM15.5 1H14.5V2H15.5V1ZM13 16V17H14V16.5H13.5V16H13ZM16 17H17V16H16.5V16.5H16V17ZM17 2V1H16V1.5H16.5V2H17ZM17 2.5H16V3.5H17V2.5ZM17 4.5H16V5.5H17V4.5ZM17 6.5H16V7.5H17V6.5ZM17 8.5H16V9.5H17V8.5ZM17 10.5H16V11.5H17V10.5ZM17 12.5H16V13.5H17V12.5ZM17 14.5H16V15.5H17V14.5ZM15.5 17V16H14.5V17H15.5ZM13 15.5H14V14.5H13V15.5ZM13 13.5H14V12.5H13V13.5ZM13 5.5H14V4.5H13V5.5Z" fill="#7F7F7F"/>
    <rect x="16" y="1" width="1" height="1" fill="#7F7F7F"/>
    <rect x="13" y="1" width="1" height="1" fill="#7F7F7F"/>
    <rect x="13" y="16" width="1" height="1" fill="#7F7F7F"/>
    <rect x="16" y="16" width="1" height="1" fill="#7F7F7F"/>
    <rect x="13" y="11" width="2" height="1" fill="#FAF6F6"/>
    <path fill-rule="evenodd" clip-rule="evenodd" d="M1 1H5V6.68198H1V1ZM1 10.682V17H5V10.682H1ZM7 10.682V17H11V13.4777C10.2175 14.0523 9.11146 13.9858 8.4038 13.2782C7.69615 12.5705 7.62965 11.4645 8.20431 10.682H7ZM11 3.88629V1H7V6.68198H8.20431C7.62965 5.89946 7.69615 4.79344 8.4038 4.08579C9.11146 3.37813 10.2175 3.31163 11 3.88629Z" fill="#7F7F7F"/>
    <path fill-rule="evenodd" clip-rule="evenodd" d="M10.6716 5.14645L13.8536 8.32843C14.0488 8.52369 14.0488 8.84027 13.8536 9.03553L10.6716 12.2175C10.4763 12.4128 10.1597 12.4128 9.96447 12.2175C9.7692 12.0223 9.7692 11.7057 9.96447 11.5104L12.2929 9.18198L1.5 9.18198C1.22386 9.18198 1 8.95812 1 8.68198C1 8.40584 1.22386 8.18198 1.5 8.18198L12.2929 8.18198L9.96447 5.85355C9.7692 5.65829 9.7692 5.34171 9.96447 5.14645C10.1597 4.95118 10.4763 4.95118 10.6716 5.14645Z" fill="#444746"/>
</svg>