<svg id="iconFormatColumnsStretch" width="18" height="18" viewBox="0 0 18 18" fill="none" xmlns="http://www.w3.org/2000/svg">
    <path fill-rule="evenodd" clip-rule="evenodd" d="M1.64645 9.03553C1.45118 8.84027 1.45118 8.52369 1.64645 8.32843L4.82843 5.14645C5.02369 4.95118 5.34027 4.95118 5.53553 5.14645C5.7308 5.34171 5.7308 5.65829 5.53553 5.85355L3.20711 8.18198H14.7929L12.4645 5.85355C12.2692 5.65829 12.2692 5.34171 12.4645 5.14645C12.6597 4.95118 12.9763 4.95118 13.1716 5.14645L16.3536 8.32843C16.5488 8.52369 16.5488 8.84027 16.3536 9.03553L13.1716 12.2175C12.9763 12.4128 12.6597 12.4128 12.4645 12.2175C12.2692 12.0223 12.2692 11.7057 12.4645 11.5104L14.7929 9.18198H3.20711L5.53553 11.5104C5.7308 11.7057 5.7308 12.0223 5.53553 12.2175C5.34027 12.4128 5.02369 12.4128 4.82843 12.2175L1.64645 9.03553Z" fill="#C0C0C0"/>
    <path fill-rule="evenodd" clip-rule="evenodd" d="M1 1H5V3.50826C4.55044 3.54913 4.11207 3.74163 3.76792 4.08579L1 6.8537V1ZM1 10.5103V17H5V13.8557C4.55044 13.8148 4.11207 13.6223 3.76792 13.2782L1 10.5103ZM7 12.6991V17H11V12.6985C10.7576 12.1701 10.7576 11.5578 11 11.0294V10.682H7V11.0288C7.24284 11.5575 7.24284 12.1704 7 12.6991ZM7 6.68198H11V6.33452C10.7576 5.80615 10.7576 5.19385 11 4.66548V1H7V4.66482C7.24284 5.19356 7.24284 5.80644 7 6.33518V6.68198ZM13 13.8557V17H17V10.5106L14.2324 13.2782C13.8882 13.6224 13.4497 13.8149 13 13.8557ZM17 6.8534L14.2324 4.08579C13.8882 3.74156 13.4497 3.54904 13 3.50823V1H17V6.8534Z" fill="#7F7F7F"/>
    <path fill-rule="evenodd" clip-rule="evenodd" d="M1.64645 9.03553C1.45118 8.84027 1.45118 8.52369 1.64645 8.32843L4.82843 5.14645C5.02369 4.95118 5.34027 4.95118 5.53553 5.14645C5.7308 5.34171 5.7308 5.65829 5.53553 5.85355L3.20711 8.18198H14.7929L12.4645 5.85355C12.2692 5.65829 12.2692 5.34171 12.4645 5.14645C12.6597 4.95118 12.9763 4.95118 13.1716 5.14645L16.3536 8.32843C16.5488 8.52369 16.5488 8.84027 16.3536 9.03553L13.1716 12.2175C12.9763 12.4128 12.6597 12.4128 12.4645 12.2175C12.2692 12.0223 12.2692 11.7057 12.4645 11.5104L14.7929 9.18198H3.20711L5.53553 11.5104C5.7308 11.7057 5.7308 12.0223 5.53553 12.2175C5.34027 12.4128 5.02369 12.4128 4.82843 12.2175L1.64645 9.03553Z" fill="#444746"/>
</svg>