<svg id="iconFormatRowsAuto" width="18" height="18" viewBox="0 0 18 18" fill="none" xmlns="http://www.w3.org/2000/svg">
    <path fill-rule="evenodd" clip-rule="evenodd" d="M14.5 13L15.5 13L15.5 14L14.5 14L14.5 13ZM16 13L16 13.5L16.5 13.5L16.5 14L17 14L17 13L16 13ZM17 15.5L17 14.5L16 14.5L16 15.5L17 15.5ZM2 13L1 13L1 14L1.5 14L1.5 13.5L2 13.5L2 13ZM1 16L1 17L2 17L2 16.5L1.5 16.5L1.5 16L1 16ZM16 17L17 17L17 16L16.5 16L16.5 16.5L16 16.5L16 17ZM15.5 17L15.5 16L14.5 16L14.5 17L15.5 17ZM13.5 17L13.5 16L12.5 16L12.5 17L13.5 17ZM11.5 17L11.5 16L10.5 16L10.5 17L11.5 17ZM9.5 17L9.5 16L8.5 16L8.5 17L9.5 17ZM7.5 17L7.5 16L6.5 16L6.5 17L7.5 17ZM5.5 17L5.5 16L4.5 16L4.5 17L5.5 17ZM3.5 17L3.5 16L2.5 16L2.5 17L3.5 17ZM1 15.5L2 15.5L2 14.5L1 14.5L1 15.5ZM2.5 13L2.5 14L3.5 14L3.5 13L2.5 13ZM4.5 13L4.5 14L5.5 14L5.5 13L4.5 13ZM12.5 13L12.5 14L13.5 14L13.5 13L12.5 13Z" fill="#7F7F7F"/>
    <rect x="17" y="16" width="1" height="1" transform="rotate(90 17 16)" fill="#7F7F7F"/>
    <rect x="17" y="13" width="1" height="1" transform="rotate(90 17 13)" fill="#7F7F7F"/>
    <rect x="2" y="13" width="1" height="1" transform="rotate(90 2 13)" fill="#7F7F7F"/>
    <rect x="2" y="16" width="1" height="1" transform="rotate(90 2 16)" fill="#7F7F7F"/>
    <rect x="7" y="13" width="2" height="1" transform="rotate(90 7 13)" fill="#FAF6F6"/>
    <path fill-rule="evenodd" clip-rule="evenodd" d="M17 1L17 5L11.318 5L11.318 1L17 1ZM7.31802 1L1 0.999999L1 5L7.31802 5L7.31802 1ZM7.31802 7L1 7L1 11L4.52233 11C3.94767 10.2175 4.01417 9.11146 4.72183 8.4038C5.42948 7.69615 6.5355 7.62965 7.31802 8.20431L7.31802 7ZM14.1137 11L17 11L17 7L11.318 7L11.318 8.20431C12.1005 7.62965 13.2066 7.69615 13.9142 8.4038C14.6219 9.11146 14.6884 10.2175 14.1137 11Z" fill="#7F7F7F"/>
    <path fill-rule="evenodd" clip-rule="evenodd" d="M12.8536 10.6716L9.67157 13.8536C9.47631 14.0488 9.15973 14.0488 8.96447 13.8536L5.78249 10.6716C5.58722 10.4763 5.58722 10.1597 5.78249 9.96447C5.97775 9.7692 6.29433 9.7692 6.48959 9.96447L8.81802 12.2929L8.81802 1.5C8.81802 1.22386 9.04188 1 9.31802 1C9.59416 1 9.81802 1.22386 9.81802 1.5L9.81802 12.2929L12.1464 9.96447C12.3417 9.7692 12.6583 9.7692 12.8536 9.96447C13.0488 10.1597 13.0488 10.4763 12.8536 10.6716Z" fill="#444746"/>
</svg>