<svg id="iconFormatRowsStretch" width="18" height="18" viewBox="0 0 18 18" fill="none" xmlns="http://www.w3.org/2000/svg">
    <path fill-rule="evenodd" clip-rule="evenodd" d="M17 1L17 5L14.4917 5C14.4509 4.55044 14.2584 4.11207 13.9142 3.76792L11.1463 1L17 1ZM7.48974 1L1 0.999999L1 5L4.1443 5C4.18516 4.55044 4.37767 4.11207 4.72183 3.76792L7.48974 1ZM5.30086 7L1 7L1 11L5.30152 11C5.82989 10.7576 6.44219 10.7576 6.97056 11L7.31802 11L7.31802 7L6.97122 7C6.44248 7.24284 5.8296 7.24284 5.30086 7ZM11.318 7L11.318 11L11.6655 11C12.1939 10.7576 12.8061 10.7576 13.3345 11L17 11L17 7L13.3352 7C12.8064 7.24284 12.1936 7.24284 11.6648 7L11.318 7ZM4.14427 13L0.999999 13L0.999999 17L7.48944 17L4.72183 14.2324C4.3776 13.8882 4.18508 13.4497 4.14427 13ZM11.1466 17L13.9142 14.2324C14.2584 13.8882 14.451 13.4497 14.4918 13L17 13L17 17L11.1466 17Z" fill="#7F7F7F"/>
    <path fill-rule="evenodd" clip-rule="evenodd" d="M8.96447 1.64645C9.15973 1.45118 9.47631 1.45118 9.67157 1.64645L12.8536 4.82843C13.0488 5.02369 13.0488 5.34027 12.8536 5.53553C12.6583 5.7308 12.3417 5.7308 12.1464 5.53553L9.81802 3.20711L9.81802 14.7929L12.1464 12.4645C12.3417 12.2692 12.6583 12.2692 12.8536 12.4645C13.0488 12.6597 13.0488 12.9763 12.8536 13.1716L9.67157 16.3536C9.47631 16.5488 9.15973 16.5488 8.96447 16.3536L5.78248 13.1716C5.58722 12.9763 5.58722 12.6597 5.78249 12.4645C5.97775 12.2692 6.29433 12.2692 6.48959 12.4645L8.81802 14.7929L8.81802 3.20711L6.48959 5.53553C6.29433 5.7308 5.97775 5.7308 5.78249 5.53553C5.58722 5.34027 5.58722 5.02369 5.78249 4.82843L8.96447 1.64645Z" fill="#444746"/>
</svg>