<svg width="109" height="31" viewBox="0 0 109 31" fill="none" xmlns="http://www.w3.org/2000/svg">
    <path d="M0 4.65V1.55H0.5V0.5H1.51387V0H4.54165V0.5H7.56943V0H10.5972V0.5H13.625V0H16.6528V0.5H19.6805V0H22.7083V0.5H25.7361V0H28.7639V0.5H31.7917V0H34.8194V0.5H37.8472V0H40.875V0.5H43.9028V0H46.9305V0.5H49.9583V0H52.9861V0.5H56.0139V0H59.0417V0.5H62.0694V0H65.0972V0.5H68.125V0H71.1528V0.5H74.1806V0H77.2083V0.5H80.2361V0H83.2639V0.5H86.2917V0H89.3195V0.5H92.3472V0H95.375V0.5H98.4028V0H101.431V0.5H104.458V0H107.486V0.5H108.5V1.55H109V4.65H108.5V7.75H109V10.85H108.5V13.95H109V17.05H108.5V20.15H109V23.25H108.5V26.35H109V29.45H108.5V30.5H107.486V31H104.458V30.5H101.431V31H98.4028V30.5H95.375V31H92.3472V30.5H89.3195V31H86.2917V30.5H83.2639V31H80.2361V30.5H77.2083V31H74.1806V30.5H71.1528V31H68.125V30.5H65.0972V31H62.0695V30.5H59.0417V31H56.0139V30.5H52.9861V31H49.9583V30.5H46.9306V31H43.9028V30.5H40.875V31H37.8472V30.5H34.8195V31H31.7917V30.5H28.7639V31H25.7361V30.5H22.7083V31H19.6806V30.5H16.6528V31H13.625V30.5H10.5972V31H7.56944V30.5H4.54167V31H1.51389V30.5H0.5V29.45H0V26.35H0.5V23.25H0V20.15H0.5V17.05H0V13.95H0.5V10.85H0V7.75H0.5V4.65H0Z" stroke="black" stroke-dasharray="3 3"/>
    <rect x="8.5" y="8.5" width="16" height="16" rx="2.5" fill="#C4C4C4" stroke="black" stroke-dasharray="2 2"/>
    <rect x="34.5" y="8.5" width="15" height="16" rx="2.5" fill="#C4C4C4" stroke="black" stroke-dasharray="2 2"/>
    <rect x="59.5" y="8.5" width="15" height="16" rx="2.5" fill="#C4C4C4" stroke="black" stroke-dasharray="2 2"/>
    <path d="M83.8911 18C83.371 18 82.9245 17.8047 82.5516 17.4142C82.1839 17.0181 82 16.5439 82 15.9916C82 15.4449 82.1839 14.9763 82.5516 14.5858C82.9245 14.1953 83.371 14 83.8911 14C84.3954 14 84.8366 14.1953 85.2148 14.5858C85.593 14.9763 85.7822 15.4449 85.7822 15.9916C85.7822 16.3598 85.6929 16.6973 85.5143 17.0042C85.3409 17.3054 85.1124 17.5481 84.8287 17.7322C84.5451 17.9107 84.2325 18 83.8911 18Z" fill="#00B2FF"/>
    <path d="M90.5 18C89.98 18 89.5334 17.8047 89.1605 17.4142C88.7928 17.0181 88.6089 16.5439 88.6089 15.9916C88.6089 15.4449 88.7928 14.9763 89.1605 14.5858C89.5334 14.1953 89.98 14 90.5 14C91.0043 14 91.4455 14.1953 91.8238 14.5858C92.202 14.9763 92.3911 15.4449 92.3911 15.9916C92.3911 16.3598 92.3018 16.6973 92.1232 17.0042C91.9498 17.3054 91.7213 17.5481 91.4377 17.7322C91.154 17.9107 90.8414 18 90.5 18Z" fill="#00B2FF"/>
    <path d="M97.1089 18C96.5889 18 96.1424 17.8047 95.7694 17.4142C95.4017 17.0181 95.2178 16.5439 95.2178 15.9916C95.2178 15.4449 95.4017 14.9763 95.7694 14.5858C96.1424 14.1953 96.5889 14 97.1089 14C97.6132 14 98.0545 14.1953 98.4327 14.5858C98.8109 14.9763 99 15.4449 99 15.9916C99 16.3598 98.9107 16.6973 98.7321 17.0042C98.5587 17.3054 98.3302 17.5481 98.0466 17.7322C97.7629 17.9107 97.4504 18 97.1089 18Z" fill="#00B2FF"/>
</svg>