<svg width="21" height="16" viewBox="0 0 21 16" fill="none" xmlns="http://www.w3.org/2000/svg">
    <path d="M18.25 2L0.25 2" stroke="#FFDFAF" stroke-width="8"/>
    <path d="M0.25 3.55556V1.77778H0.75V0.5H2.47222V0H4.69444V0.5H9.13889V0H11.3611V0.5H15.8056V0H18.0278V0.5H19.75V1.77778H20.25V3.55556H19.75V7.11111H20.25V8.88889H19.75V12.4444H20.25V14.2222H19.75V15.5H18.0278V16H15.8056V15.5H11.3611V16H9.13889V15.5H4.69444V16H2.47222V15.5H0.75V14.2222H0.25V12.4444H0.75V8.88889H0.25V7.11111H0.75V3.55556H0.25Z" stroke="black" stroke-dasharray="4 2"/>
</svg>