<svg width="110" height="38" viewBox="0 0 110 38" fill="none" xmlns="http://www.w3.org/2000/svg">
    <rect x="26" y="10" width="9" height="17" fill="#FFFFFF"/>
    <path d="M5 5H105V32H5V5Z" stroke="#FFDFAF" stroke-width="10"/>
    <rect x="51" y="10" width="9" height="17" fill="#FFFFFF"/>
    <rect x="77" y="10" width="9" height="17" fill="#FFFFFF"/>
    <path d="M5 37.5C4.17938 37.5 3.41147 37.2808 2.75001 36.8981L2.4996 37.3309C1.74084 36.8918 1.10816 36.2592 0.669143 35.5004L1.10192 35.25C0.719205 34.5885 0.5 33.8206 0.5 33V31.1333H0V29.2667H0.5V25.5333H0V23.6667H0.5V19.9333H0V18.0667H0.5V14.3333H0V12.4667H0.5V8.73333H0V6.86667H0.5V5C0.5 4.17937 0.719205 3.41146 1.10192 2.75L0.669142 2.4996C1.10815 1.74084 1.74084 1.10815 2.4996 0.669142L2.75 1.10192C3.41147 0.719205 4.17938 0.5 5 0.5H6.96078V0H8.92157V0.5H12.8431V0H14.8039V0.5H18.7255V0H20.6863V0.5H24.6078V0H26.5686V0.5H30.4902V0H32.451V0.5H36.3726V0H38.3333V0.5H42.2549V0H44.2157V0.5H48.1373V0H50.098V0.5H54.0196V0H55.9804V0.5H59.902V0H61.8628V0.5H65.7843V0H67.7451V0.5H71.6667V0H73.6275V0.5H77.549V0H79.5098V0.5H83.4314V0H85.3922V0.5H89.3137V0H91.2745V0.5H95.1961V0H97.1569V0.5H101.078V0H103.039V0.5H105C105.821 0.5 106.589 0.719205 107.25 1.10192L107.5 0.669143C108.259 1.10816 108.892 1.74084 109.331 2.4996L108.898 2.75C109.281 3.41147 109.5 4.17938 109.5 5V6.86667H110V8.73333H109.5V12.4667H110V14.3333H109.5V18.0667H110V19.9333H109.5V23.6667H110V25.5333H109.5V29.2667H110V31.1333H109.5V33C109.5 33.8206 109.281 34.5885 108.898 35.25L109.331 35.5004C108.892 36.2592 108.259 36.8918 107.5 37.3309L107.25 36.8981C106.589 37.2808 105.821 37.5 105 37.5H103.039V38H101.078V37.5H97.1569V38H95.1961V37.5H91.2745V38H89.3137V37.5H85.3922V38H83.4314V37.5H79.5098V38H77.549V37.5H73.6274V38H71.6667V37.5H67.7451V38H65.7843V37.5H61.8627V38H59.902V37.5H55.9804V38H54.0196V37.5H50.098V38H48.1372V37.5H44.2157V38H42.2549V37.5H38.3333V38H36.3725V37.5H32.451V38H30.4902V37.5H26.5686V38H24.6078V37.5H20.6863V38H18.7255V37.5H14.8039V38H12.8431V37.5H8.92156V38H6.96077V37.5H5Z" stroke="black" stroke-dasharray="4 2"/>
    <rect x="9" y="10.5734" width="16.156" height="16.156" rx="2.5" fill="#C4C4C4" stroke="#A171F1" stroke-dasharray="2 2"/>
    <rect x="35" y="10.5734" width="16" height="16" rx="2.5" fill="#C4C4C4" stroke="#A171F1" stroke-dasharray="2 2"/>
    <rect x="60.5413" y="10.5734" width="16" height="16" rx="2.5" fill="#C4C4C4" stroke="#A171F1" stroke-dasharray="2 2"/>
    <rect x="86" y="10.5734" width="16" height="16" rx="2.5" fill="#C4C4C4" stroke="#A171F1" stroke-dasharray="2 2"/>
</svg>