<svg width="111" height="71" viewBox="0 0 111 71" fill="none" xmlns="http://www.w3.org/2000/svg">
    <rect x="26.25" y="10" width="9" height="52" fill="#A3E3B1"/>
    <path d="M5.5 5H105.5V66H5.5L5.5 5Z" stroke="#FFDFAF" stroke-width="10"/>
    <rect x="51.25" y="11" width="9" height="51" fill="#A3E3B1"/>
    <rect x="77.25" y="10" width="9" height="52" fill="#A3E3B1"/>
    <rect opacity="0.5" x="103.25" y="27" width="9" height="94" transform="rotate(90 103.25 27)" fill="#9EE2FF"/>
    <rect opacity="0.5" x="101.25" y="53" width="9" height="92" transform="rotate(90 101.25 53)" fill="#9EE2FF"/>
    <path d="M2.7496 70.3309C1.99084 69.8918 1.35815 69.2592 0.919142 68.5004L1.35192 68.25C0.969205 67.5885 0.75 66.8206 0.75 66V63.9667H0.25V61.9333H0.75V57.8667H0.25V55.8333H0.75V51.7667H0.25V49.7333H0.75V45.6667H0.25V43.6333H0.75V39.5667H0.25V37.5333H0.75V33.4667H0.25V31.4333H0.75V27.3667H0.25V25.3333H0.75V21.2667H0.25V19.2333H0.75V15.1667H0.25V13.1333H0.75V9.06667H0.25V7.03333H0.75V5C0.75 4.17937 0.969205 3.41147 1.35192 2.75L0.919142 2.4996C1.35815 1.74084 1.99084 1.10815 2.7496 0.669142L3 1.10192C3.66147 0.719205 4.42938 0.5 5.25 0.5H7.21077V0H9.17156V0.5H13.0931V0H15.0539V0.5H18.9755V0H20.9363V0.5H24.8578V0H26.8186V0.5H30.7402V0H32.701V0.5H36.6225V0H38.5833V0.5H42.5049V0H44.4657V0.5H48.3872V0H50.348V0.5H54.2696V0H56.2304V0.5H60.152V0H62.1127V0.5H66.0343V0H67.9951V0.5H71.9167V0H73.8774V0.5H77.799V0H79.7598V0.5H83.6814V0H85.6422V0.5H89.5637V0H91.5245V0.5H95.4461V0H97.4069V0.5H101.328V0H103.289V0.5H105.25C106.071 0.5 106.839 0.719205 107.5 1.10192L107.75 0.669141C108.509 1.10815 109.142 1.74084 109.581 2.4996L109.148 2.75C109.531 3.41147 109.75 4.17938 109.75 5V7.03335H110.25V9.06668H109.75V13.1333H110.25V15.1667H109.75V19.2333H110.25V21.2667H109.75V25.3333H110.25V27.3667H109.75V31.4333H110.25V33.4667H109.75V37.5333H110.25V39.5667H109.75V43.6333H110.25V45.6667H109.75V49.7333H110.25V51.7667H109.75V55.8333H110.25V57.8667H109.75V61.9333H110.25V63.9667H109.75V66C109.75 66.8206 109.531 67.5885 109.148 68.25L109.581 68.5004C109.142 69.2592 108.509 69.8918 107.75 70.3309L107.5 69.8981C106.839 70.2808 106.071 70.5 105.25 70.5H103.289V71H101.328V70.5H97.4069V71H95.4461V70.5H91.5245V71H89.5637V70.5H85.6422V71H83.6814V70.5H79.7598V71H77.799V70.5H73.8775V71H71.9167V70.5H67.9951V71H66.0343V70.5H62.1128V71H60.152V70.5H56.2304V71H54.2696V70.5H50.348V71H48.3873V70.5H44.4657V71H42.5049V70.5H38.5833V71H36.6226V70.5H32.701V71H30.7402V70.5H26.8186V71H24.8578V70.5H20.9363V71H18.9755V70.5H15.0539V71H13.0931V70.5H9.17157V71H7.21079V70.5H5.25C4.42938 70.5 3.66147 70.2808 3.00001 69.8981L2.7496 70.3309Z" stroke="black" stroke-dasharray="4 2"/>
    <rect x="9.25" y="10.5734" width="16.156" height="16.156" rx="2.5" fill="#C4C4C4" stroke="#A171F1" stroke-dasharray="2 2"/>
    <rect x="10.25" y="36.5" width="16" height="16" rx="2.5" fill="#C4C4C4" stroke="#A171F1" stroke-dasharray="2 2"/>
    <rect x="35.25" y="36.5" width="16" height="16" rx="2.5" fill="#C4C4C4" stroke="#A171F1" stroke-dasharray="2 2"/>
    <rect x="35.25" y="10.5734" width="16" height="16" rx="2.5" fill="#C4C4C4" stroke="#A171F1" stroke-dasharray="2 2"/>
    <rect x="60.7913" y="10.5734" width="16" height="16" rx="2.5" fill="#C4C4C4" stroke="#A171F1" stroke-dasharray="2 2"/>
    <rect x="86.25" y="10.5734" width="16" height="16" rx="2.5" fill="#C4C4C4" stroke="#A171F1" stroke-dasharray="2 2"/>
</svg>