<svg width="38" height="110" viewBox="0 0 38 110" fill="none" xmlns="http://www.w3.org/2000/svg">
    <rect x="10" y="84" width="9" height="17" transform="rotate(-90 10 84)" fill="#A3E3B1"/>
    <path d="M5 105L5 5H32L32 105H5Z" stroke="#FFDFAF" stroke-width="10"/>
    <rect x="10" y="59" width="9" height="17" transform="rotate(-90 10 59)" fill="#A3E3B1"/>
    <rect x="10" y="33" width="9" height="17" transform="rotate(-90 10 33)" fill="#A3E3B1"/>
    <path d="M37.5 105C37.5 105.821 37.2808 106.589 36.8981 107.25L37.3309 107.5C36.8918 108.259 36.2592 108.892 35.5004 109.331L35.25 108.898C34.5885 109.281 33.8206 109.5 33 109.5H31.1333V110H29.2667V109.5H25.5333V110H23.6667V109.5H19.9333V110H18.0667V109.5H14.3333V110H12.4667V109.5H8.73333V110H6.86667V109.5H5C4.17937 109.5 3.41146 109.281 2.75 108.898L2.4996 109.331C1.74084 108.892 1.10815 108.259 0.669142 107.5L1.10192 107.25C0.719205 106.589 0.5 105.821 0.5 105L0.5 103.039H0L0 101.078H0.5L0.5 97.1569H0L0 95.1961H0.5L0.5 91.2745H0L0 89.3137H0.5L0.5 85.3922H0L0 83.4314H0.5L0.5 79.5098H0L0 77.549H0.5L0.5 73.6274H0L0 71.6667H0.5L0.5 67.7451H0L0 65.7843H0.5L0.5 61.8627H0L0 59.902H0.5L0.5 55.9804H0L0 54.0196H0.5L0.5 50.098H0L0 48.1372H0.5L0.5 44.2157H0L0 42.2549H0.5L0.5 38.3333H0L0 36.3725H0.5L0.5 32.451H0L0 30.4902H0.5L0.5 26.5686H0L0 24.6078H0.5L0.5 20.6863H0L0 18.7255H0.5L0.5 14.8039H0L0 12.8431H0.5L0.5 8.92155H0L0 6.96077H0.5L0.5 5C0.5 4.17937 0.719205 3.41147 1.10192 2.75L0.669143 2.4996C1.10816 1.74084 1.74084 1.10815 2.4996 0.669144L2.75 1.10192C3.41147 0.7192 4.17938 0.5 5 0.5H6.86667V0H8.73333V0.5H12.4667V0H14.3333V0.5H18.0667V0H19.9333V0.5H23.6667V0H25.5333V0.5H29.2667V0H31.1333V0.5H33C33.8206 0.5 34.5885 0.7192 35.25 1.10192L35.5004 0.669144C36.2592 1.10815 36.8918 1.74084 37.3309 2.4996L36.8981 2.75C37.2808 3.41146 37.5 4.17937 37.5 5V6.96078H38V8.92157H37.5V12.8431H38V14.8039H37.5V18.7255H38V20.6863H37.5V24.6078H38V26.5686H37.5V30.4902H38V32.451H37.5V36.3726H38V38.3333H37.5V42.2549H38V44.2157H37.5V48.1373H38V50.098H37.5L37.5 54.0196H38V55.9804H37.5V59.902H38V61.8628H37.5V65.7843H38V67.7451H37.5V71.6667H38V73.6275H37.5V77.549H38V79.5098H37.5V83.4314H38V85.3922H37.5V89.3137H38V91.2745H37.5V95.1961H38V97.1569H37.5V101.078H38V103.039H37.5V105Z" stroke="black" stroke-dasharray="4 2"/>
    <rect x="10.5734" y="101" width="16.156" height="16.156" rx="2.5" transform="rotate(-90 10.5734 101)" fill="#C4C4C4" stroke="#A171F1" stroke-dasharray="2 2"/>
    <rect x="10.5734" y="75" width="16" height="16" rx="2.5" transform="rotate(-90 10.5734 75)" fill="#C4C4C4" stroke="#A171F1" stroke-dasharray="2 2"/>
    <rect x="10.5734" y="49.4587" width="16" height="16" rx="2.5" transform="rotate(-90 10.5734 49.4587)" fill="#C4C4C4" stroke="#A171F1" stroke-dasharray="2 2"/>
    <rect x="10.5734" y="24" width="16" height="16" rx="2.5" transform="rotate(-90 10.5734 24)" fill="#C4C4C4" stroke="#A171F1" stroke-dasharray="2 2"/>
</svg>