<svg width="50" height="50" viewBox="0 0 50 50" fill="none" xmlns="http://www.w3.org/2000/svg">
<path d="M44.2498 40.9513C47.2737 37.3022 49.198 32.8687 49.7985 28.1677C50.399 23.4667 49.6509 18.6918 47.6414 14.3997C45.632 10.1076 42.4439 6.47513 38.4489 3.92565C34.4538 1.37618 29.8164 0.0147668 25.0773 0.000119405C20.3381 -0.014528 15.6924 1.31819 11.6817 3.84292C7.67096 6.36766 4.4605 9.98039 2.42453 14.26C0.388564 18.5396 -0.389031 23.3097 0.182388 28.0143C0.753808 32.719 2.6507 37.1642 5.65195 40.832L10.4505 36.9055C8.19365 34.1473 6.76721 30.8045 6.33751 27.2667C5.90781 23.7289 6.49255 20.1418 8.02357 16.9237C9.55459 13.7055 11.9688 10.9887 14.9848 9.09018C18.0008 7.19162 21.4943 6.18943 25.0581 6.20045C28.6219 6.21146 32.1092 7.23522 35.1134 9.15239C38.1176 11.0696 40.5149 13.8012 42.026 17.0287C43.5371 20.2563 44.0997 23.847 43.6481 27.382C43.1966 30.9171 41.7495 34.2511 39.4756 36.9952L44.2498 40.9513Z" fill="#D9D9D9"/>
<path d="M18.0374 0.98913C14.0599 2.14252 10.4312 4.26595 7.47735 7.16866C4.52351 10.0714 2.33704 13.6624 1.11437 17.6192C-0.108298 21.5759 -0.328859 25.7745 0.472503 29.8376C1.27386 33.9006 3.07205 37.701 5.70549 40.8972L10.5759 36.8844C8.60721 34.495 7.26294 31.6539 6.66386 28.6164C6.06478 25.579 6.22967 22.4403 7.1437 19.4823C8.05774 16.5243 9.69229 13.8397 11.9005 11.6697C14.1087 9.49975 16.8214 7.91232 19.7949 7.05008L18.0374 0.98913Z" fill="black"/>
</svg>
