<svg width="50" height="50" viewBox="0 0 50 50" fill="none" xmlns="http://www.w3.org/2000/svg">
<path d="M44.2498 40.9514C47.2737 37.3022 49.198 32.8687 49.7985 28.1677C50.399 23.4667 49.6509 18.6919 47.6414 14.3998C45.632 10.1077 42.4439 6.47519 38.4489 3.92571C34.4538 1.37624 29.8164 0.0148278 25.0773 0.00018044C20.3381 -0.014467 15.6924 1.31825 11.6817 3.84299C7.67096 6.36772 4.4605 9.98045 2.42453 14.26C0.388564 18.5396 -0.389031 23.3098 0.182388 28.0144C0.753808 32.719 2.6507 37.1643 5.65195 40.8321L10.4505 36.9055C8.19365 34.1474 6.76721 30.8046 6.33751 27.2668C5.90781 23.729 6.49255 20.1419 8.02357 16.9237C9.55459 13.7055 11.9688 10.9888 14.9848 9.09024C18.0008 7.19168 21.4943 6.18949 25.0581 6.20051C28.6219 6.21152 32.1092 7.23528 35.1134 9.15245C38.1176 11.0696 40.5149 13.8012 42.026 17.0288C43.5371 20.2564 44.0997 23.847 43.6481 27.3821C43.1966 30.9172 41.7495 34.2511 39.4756 36.9952L44.2498 40.9514Z" fill="#D9D9D9"/>
<path d="M39 10.5L25 24.5" stroke="black" stroke-width="4" stroke-linecap="round"/>
</svg>
