<svg width="16" height="16" viewBox="0 0 16 16" fill="none" xmlns="http://www.w3.org/2000/svg">
<path d="M7.33333 11.3333H8.66667V7.33333H7.33333V11.3333ZM8 1.33333C4.31667 1.33333 1.33333 4.31667 1.33333 8C1.33333 11.6833 4.31667 14.6667 8 14.6667C11.6833 14.6667 14.6667 11.6833 14.6667 8C14.6667 4.31667 11.6833 1.33333 8 1.33333ZM8 13.3333C5.06 13.3333 2.66667 10.94 2.66667 8C2.66667 5.06 5.06 2.66667 8 2.66667C10.94 2.66667 13.3333 5.06 13.3333 8C13.3333 10.94 10.94 13.3333 8 13.3333ZM7.33333 6H8.66667V4.66667H7.33333V6Z" fill="#00B2FF"/>
</svg>
